<?xml version="1.0" standalone="no"?>
<!DOCTYPE svg PUBLIC "-//W3C//DTD SVG 20010904//EN"
 "http://www.w3.org/TR/2001/REC-SVG-20010904/DTD/svg10.dtd">
<svg version="1.0" xmlns="http://www.w3.org/2000/svg"
 width="1024.000000pt" height="1024.000000pt" viewBox="0 0 1024.000000 1024.000000"
 preserveAspectRatio="xMidYMid meet">
<metadata>
Created by potrace 1.11, written by Peter Selinger 2001-2013
</metadata>
<g transform="translate(0.000000,1024.000000) scale(0.100000,-0.100000)"
fill="#000000" stroke="none">
<path d="M0 5120 l0 -5120 5120 0 5120 0 0 5120 0 5120 -5120 0 -5120 0 0
-5120z m5590 3794 c145 -17 338 -51 490 -89 52 -12 131 -28 176 -34 186 -26
379 -96 639 -230 358 -184 665 -410 960 -706 311 -310 531 -613 725 -1000 293
-581 422 -1160 407 -1824 -13 -607 -139 -1114 -407 -1646 -194 -387 -414 -690
-725 -1000 -502 -503 -1110 -851 -1780 -1019 -343 -86 -557 -111 -955 -111
-247 0 -345 4 -455 18 -467 61 -825 166 -1222 357 -528 255 -982 619 -1358
1087 -202 253 -387 569 -436 748 -13 44 -46 141 -75 215 -28 74 -68 186 -88
248 -35 110 -116 422 -116 449 0 7 38 -10 91 -43 115 -69 295 -160 419 -210
91 -36 102 -38 245 -45 92 -4 217 -19 325 -37 270 -48 358 -56 595 -56 227 1
365 14 570 55 516 103 1069 387 1377 707 214 223 303 465 248 680 -30 120 -43
173 -56 227 -8 33 -17 61 -21 63 -35 12 -59 31 -61 49 -3 18 -8 21 -30 18 -49
-9 -689 -26 -705 -19 -25 9 -21 47 7 73 34 32 138 67 232 80 43 6 180 15 304
21 324 16 323 15 395 85 33 32 75 68 95 81 19 13 52 36 72 51 20 15 72 54 116
86 260 187 373 400 388 732 13 263 -39 558 -166 950 -55 169 -80 273 -95 390
-11 83 -150 315 -306 510 -39 50 -76 96 -82 103 -11 14 23 13 263 -14z"/>
<path d="M6640 6273 c-187 -18 -405 -68 -645 -147 -88 -30 -194 -59 -235 -66
-41 -7 -130 -30 -198 -51 -68 -22 -178 -50 -245 -63 -122 -24 -385 -46 -554
-46 -114 0 -246 -23 -315 -54 -33 -15 -46 -25 -33 -26 16 -1 14 -4 -10 -15
-26 -12 -11 -13 130 -9 88 3 249 9 358 15 336 16 399 11 290 -20 -46 -13 -57
-30 -20 -32 12 -1 93 0 180 1 146 2 157 1 159 -17 0 -10 2 -23 2 -30 1 -6 4
-14 8 -18 3 -3 1 -20 -6 -36 -9 -27 -8 -33 8 -45 16 -11 17 -17 8 -26 -18 -18
-15 -43 8 -63 19 -17 21 -17 43 1 l22 19 -22 -26 c-26 -28 -28 -41 -12 -71 11
-20 11 -19 42 8 l32 29 -27 -30 c-41 -46 -45 -79 -13 -111 l26 -26 27 23 26
24 -27 -33 c-32 -40 -33 -52 -8 -83 l20 -24 53 50 53 50 -47 -50 c-54 -57 -59
-81 -25 -113 30 -29 43 -28 73 6 l26 27 -21 -29 c-26 -35 -27 -62 -3 -77 12
-8 17 -20 14 -34 -4 -23 33 -60 50 -49 4 3 8 -5 8 -18 0 -35 27 -68 56 -68 28
0 102 35 182 87 30 19 51 29 47 24 -15 -25 -192 -121 -222 -121 -48 0 -77 -47
-76 -119 1 -31 6 -57 12 -59 7 -2 3 -14 -9 -29 -31 -39 -61 -132 -67 -207 l-6
-69 24 6 c13 4 29 7 36 7 7 0 24 12 38 28 22 23 20 17 -10 -33 -43 -72 -55
-113 -55 -186 0 -71 17 -97 51 -79 46 24 91 75 119 138 16 34 31 62 34 62 3 0
-7 -26 -22 -57 -27 -61 -39 -147 -28 -208 8 -40 22 -43 62 -14 l29 21 -28 -26
c-37 -34 -56 -33 -69 6 l-12 33 -18 -40 c-21 -48 -24 -143 -4 -170 12 -16 18
-17 39 -8 14 7 45 29 68 50 l41 38 -51 -103 c-29 -57 -56 -124 -60 -149 -10
-51 1 -104 25 -124 14 -12 23 -7 63 37 25 28 86 121 135 207 49 86 91 157 94
157 2 0 -16 -35 -39 -77 -87 -157 -110 -209 -121 -274 -12 -73 -5 -146 16
-175 13 -16 15 -17 37 -2 31 20 154 227 209 351 24 53 45 96 47 94 5 -6 -91
-217 -119 -263 -34 -54 -40 -84 -27 -142 24 -115 56 -105 131 42 29 58 54 103
56 101 2 -2 -1 -13 -7 -24 -9 -16 -8 -28 5 -53 l17 -32 29 34 c83 98 128 164
175 260 29 58 53 101 53 97 0 -5 -5 -18 -12 -30 -11 -21 -10 -21 13 -6 51 33
136 151 201 275 74 142 100 226 123 384 8 58 21 139 30 180 9 41 22 126 30
188 8 62 30 173 50 246 30 113 35 150 35 240 0 74 -4 116 -15 135 -15 29 -40
45 -55 36 -9 -6 7 55 35 135 17 49 19 88 6 123 -9 22 -7 25 22 30 27 4 168 55
337 122 43 17 114 19 142 4 19 -10 20 -9 14 17 -9 34 -40 70 -78 90 -24 13
-28 13 -28 0 0 -17 -27 -46 -43 -46 -6 0 -1 7 11 16 16 11 22 24 20 42 -4 37
-89 79 -199 97 -178 29 -589 51 -719 38z m408 -292 c31 -16 68 -42 82 -57 l25
-29 -30 26 c-17 15 -57 41 -90 57 -33 17 -56 31 -52 32 4 0 33 -13 65 -29z
m-1345 -479 l72 -11 -70 6 c-80 6 -85 8 -84 31 1 15 2 15 6 1 3 -12 24 -19 76
-27z m125 -19 c-10 -2 -26 -2 -35 0 -10 3 -2 5 17 5 19 0 27 -2 18 -5z m-133
-51 c-3 -3 -11 0 -18 7 -9 10 -8 11 6 5 10 -3 15 -9 12 -12z m242 2 c-3 -3
-12 -4 -19 -1 -8 3 -5 6 6 6 11 1 17 -2 13 -5z m-104 -11 c-24 -2 -62 -2 -85
0 -24 2 -5 4 42 4 47 0 66 -2 43 -4z m157 -23 c-8 -5 -19 -10 -25 -10 -5 0 -3
5 5 10 8 5 20 10 25 10 6 0 3 -5 -5 -10z m-95 -31 c-42 -9 -133 -11 -138 -1
-3 4 34 7 82 8 53 0 75 -2 56 -7z m30 -75 l60 5 -50 -10 c-52 -11 -110 -5
-120 11 -4 6 6 5 22 -1 15 -6 55 -8 88 -5z m205 -29 c0 -6 -76 -45 -87 -45 -4
1 12 12 37 25 50 27 50 27 50 20z m-248 -69 c18 0 53 3 78 7 24 4 42 5 39 2
-3 -3 -31 -10 -61 -15 -59 -11 -108 -1 -108 22 0 10 3 9 9 -1 5 -8 24 -15 43
-15z m238 -31 c0 -2 -10 -9 -22 -15 -22 -11 -22 -10 -4 4 21 17 26 19 26 11z
m-50 -31 c0 -9 -108 -53 -156 -64 -47 -11 -84 -1 -84 23 0 8 3 7 9 -2 14 -22
84 -14 159 18 37 16 68 29 70 30 1 1 2 -1 2 -5z m140 -38 c0 -2 -8 -10 -17
-17 -16 -13 -17 -12 -4 4 13 16 21 21 21 13z m-95 -243 c-65 -62 -169 -133
-194 -133 -8 0 7 11 35 25 27 13 85 56 129 94 44 38 82 70 85 70 3 0 -22 -25
-55 -56z m685 -177 c0 -2 -8 -10 -17 -17 -16 -13 -17 -12 -4 4 13 16 21 21 21
13z m-820 -69 c0 -2 -15 -16 -32 -33 l-33 -29 29 33 c28 30 36 37 36 29z m720
-30 c0 -2 -10 -12 -22 -23 l-23 -19 19 23 c18 21 26 27 26 19z m-780 -40 c0
-2 -10 -12 -22 -23 l-23 -19 19 23 c18 21 26 27 26 19z m720 -10 c0 -2 -10
-12 -22 -23 l-23 -19 19 23 c18 21 26 27 26 19z m-410 -41 c0 -2 -8 -10 -17
-17 -16 -13 -17 -12 -4 4 13 16 21 21 21 13z m348 -33 c-14 -16 -53 -65 -86
-110 -99 -130 -233 -223 -232 -160 0 8 3 8 9 -1 7 -11 14 -11 42 3 61 31 109
76 171 159 63 83 108 136 117 136 2 0 -7 -12 -21 -27z m-508 13 c0 -2 -8 -10
-17 -17 -16 -13 -17 -12 -4 4 13 16 21 21 21 13z m47 -145 c-12 -27 -23 -45
-25 -41 -3 9 35 90 43 90 2 0 -6 -22 -18 -49z m-30 -98 c-3 -10 -5 -4 -5 12 0
17 2 24 5 18 2 -7 2 -21 0 -30z m160 5 c-3 -8 -6 -5 -6 6 -1 11 2 17 5 13 3
-3 4 -12 1 -19z m-157 -82 c0 -30 20 -86 30 -86 4 0 32 21 61 46 l54 47 -52
-52 c-56 -56 -67 -60 -82 -32 -16 29 -30 101 -20 101 5 0 9 -11 9 -24z m501
-133 c-12 -20 -14 -14 -5 12 4 9 9 14 11 11 3 -2 0 -13 -6 -23z m-165 -40 c-8
-15 -15 -25 -16 -21 0 12 23 58 27 54 3 -2 -2 -17 -11 -33z m92 -136 c-34 -81
-63 -145 -65 -144 -2 2 15 46 36 98 67 161 84 200 87 196 2 -2 -24 -70 -58
-150z"/>
</g>
</svg>
